HIERARCHY
ROOT Hips
{
	OFFSET 0.000000 103.266502 0.000000
	CHANNELS 6 Xposition Yposition Zposition Xrotation Yrotation Zrotation 
	JOINT Spine
	{
		OFFSET -0.002400 12.777504 0.315300
		CHANNELS 3 Xrotation Yrotation Zrotation
		JOINT Spine1
		{
			OFFSET -0.002067 5.816869 0.032633
			CHANNELS 3 Xrotation Yrotation Zrotation
			JOINT Spine1_split
			{
				OFFSET -0.002067 5.816869 0.032633
				CHANNELS 3 Xrotation Yrotation Zrotation
				JOINT Spine2
				{
					OFFSET -0.002067 5.816869 0.032633
					CHANNELS 3 Xrotation Yrotation Zrotation
					JOINT Neck
					{
						OFFSET -0.003700 21.199493 -0.826900
						CHANNELS 3 Xrotation Yrotation Zrotation
						JOINT Head
						{
							OFFSET 0.000000 20.442200 4.834800
							CHANNELS 3 Xrotation Yrotation Zrotation
							JOINT HeadTop_End
							{
								OFFSET 0.000000 34.668396 4.968400
								CHANNELS 3 Xrotation Yrotation Zrotation
								End Site
								{
									OFFSET 0.000000 0.000000 0.000000
								}
							}
						}
					}
					JOINT LeftShoulder
					{
						OFFSET 3.288150 8.794197 -1.372250
						CHANNELS 3 Xrotation Yrotation Zrotation
						JOINT LeftShoulder_split
						{
							OFFSET 3.288150 8.794197 -1.372250
							CHANNELS 3 Xrotation Yrotation Zrotation
							JOINT LeftArm
							{
								OFFSET 11.953299 -2.279007 -0.146200
								CHANNELS 3 Xrotation Yrotation Zrotation
								JOINT LeftForeArm
								{
									OFFSET 18.448900 0.000000 0.000000
									CHANNELS 3 Xrotation Yrotation Zrotation
									JOINT LeftHand
									{
										OFFSET 29.527798 0.000000 0.000000
										CHANNELS 3 Xrotation Yrotation Zrotation
										JOINT LeftHandThumb1
										{
											OFFSET 10.739754 -2.369614 9.225399
											CHANNELS 3 Xrotation Yrotation Zrotation
											JOINT LeftHandThumb2
											{
												OFFSET 4.926170 -2.844131 2.844125
												CHANNELS 3 Xrotation Yrotation Zrotation
												JOINT LeftHandThumb3
												{
													OFFSET 4.614891 -2.664413 2.664409
													CHANNELS 3 Xrotation Yrotation Zrotation
													JOINT LeftHandThumb4
													{
														OFFSET 4.432465 -2.559082 2.559083
														CHANNELS 3 Xrotation Yrotation Zrotation
														End Site
														{
															OFFSET 0.000000 0.000000 0.000000
														}
													}
												}
											}
										}
										JOINT LeftHandIndex1
										{
											OFFSET 26.467674 0.187653 6.405298
											CHANNELS 3 Xrotation Yrotation Zrotation
											JOINT LeftHandIndex2
											{
												OFFSET 8.792900 0.000000 0.000000
												CHANNELS 3 Xrotation Yrotation Zrotation
												JOINT LeftHandIndex3
												{
													OFFSET 10.075203 0.000000 0.000000
													CHANNELS 3 Xrotation Yrotation Zrotation
													End Site
													{
														OFFSET 0.000000 0.000000 0.000000
													}
												}
											}
										}
										JOINT LeftHandMiddle1
										{
											OFFSET 25.764404 0.000000 0.000000
											CHANNELS 3 Xrotation Yrotation Zrotation
											JOINT LeftHandMiddle2
											{
												OFFSET 9.393974 0.000000 0.000000
												CHANNELS 3 Xrotation Yrotation Zrotation
												JOINT LeftHandMiddle3
												{
													OFFSET 10.771950 0.000000 0.000000
													CHANNELS 3 Xrotation Yrotation Zrotation
													End Site
													{
														OFFSET 0.000000 0.000000 0.000000
													}
												}
											}
										}
										JOINT LeftHandRing1
										{
											OFFSET 24.660927 0.144547 -6.225808
											CHANNELS 3 Xrotation Yrotation Zrotation
											JOINT LeftHandRing2
											{
												OFFSET 9.393799 0.000000 0.000000
												CHANNELS 3 Xrotation Yrotation Zrotation
												JOINT LeftHandRing3
												{
													OFFSET 9.928497 0.000000 0.000000
													CHANNELS 3 Xrotation Yrotation Zrotation
													End Site
													{
														OFFSET 0.000000 0.000000 0.000000
													}
												}
											}
										}
										JOINT LeftHandPinky1
										{
											OFFSET 23.655350 0.125290 -12.815412
											CHANNELS 3 Xrotation Yrotation Zrotation
											JOINT LeftHandPinky2
											{
												OFFSET 8.425102 0.000000 0.000000
												CHANNELS 3 Xrotation Yrotation Zrotation
												JOINT LeftHandPinky3
												{
													OFFSET 8.147003 0.000000 0.000000
													CHANNELS 3 Xrotation Yrotation Zrotation
													End Site
													{
														OFFSET 0.000000 0.000000 0.000000
													}
												}
											}
										}
									}
								}
							}
						}
					}
					JOINT RightShoulder
					{
						OFFSET -3.249400 8.794197 -1.372250
						CHANNELS 3 Xrotation Yrotation Zrotation
						JOINT RightShoulder_split
						{
							OFFSET -3.249400 8.794197 -1.372250
							CHANNELS 3 Xrotation Yrotation Zrotation
							JOINT RightArm
							{
								OFFSET -11.953299 -2.279007 -0.146200
								CHANNELS 3 Xrotation Yrotation Zrotation
								JOINT RightForeArm
								{
									OFFSET -18.448900 0.000000 0.000000
									CHANNELS 3 Xrotation Yrotation Zrotation
									JOINT RightHand
									{
										OFFSET -29.527802 0.000000 0.000000
										CHANNELS 3 Xrotation Yrotation Zrotation
										JOINT RightHandThumb1
										{
											OFFSET -10.739754 -2.369614 9.225399
											CHANNELS 3 Xrotation Yrotation Zrotation
											JOINT RightHandThumb2
											{
												OFFSET -4.926170 -2.844131 2.844125
												CHANNELS 3 Xrotation Yrotation Zrotation
												JOINT RightHandThumb3
												{
													OFFSET -4.614891 -2.664413 2.664409
													CHANNELS 3 Xrotation Yrotation Zrotation
													JOINT RightHandThumb4
													{
														OFFSET -4.432465 -2.559082 2.559083
														CHANNELS 3 Xrotation Yrotation Zrotation
														End Site
														{
															OFFSET 0.000000 0.000000 0.000000
														}
													}
												}
											}
										}
										JOINT RightHandIndex1
										{
											OFFSET -26.467674 0.187653 6.405298
											CHANNELS 3 Xrotation Yrotation Zrotation
											JOINT RightHandIndex2
											{
												OFFSET -8.792900 0.000000 0.000000
												CHANNELS 3 Xrotation Yrotation Zrotation
												JOINT RightHandIndex3
												{
													OFFSET -10.075203 0.000000 0.000000
													CHANNELS 3 Xrotation Yrotation Zrotation
													End Site
													{
														OFFSET 0.000000 0.000000 0.000000
													}
												}
											}
										}
										JOINT RightHandMiddle1
										{
											OFFSET -25.764404 0.000000 0.000000
											CHANNELS 3 Xrotation Yrotation Zrotation
											JOINT RightHandMiddle2
											{
												OFFSET -9.393974 0.000000 0.000000
												CHANNELS 3 Xrotation Yrotation Zrotation
												JOINT RightHandMiddle3
												{
													OFFSET -10.771950 0.000000 0.000000
													CHANNELS 3 Xrotation Yrotation Zrotation
													End Site
													{
														OFFSET 0.000000 0.000000 0.000000
													}
												}
											}
										}
										JOINT RightHandRing1
										{
											OFFSET -24.660927 0.144547 -6.225808
											CHANNELS 3 Xrotation Yrotation Zrotation
											JOINT RightHandRing2
											{
												OFFSET -9.393799 0.000000 0.000000
												CHANNELS 3 Xrotation Yrotation Zrotation
												JOINT RightHandRing3
												{
													OFFSET -9.928497 0.000000 0.000000
													CHANNELS 3 Xrotation Yrotation Zrotation
													End Site
													{
														OFFSET 0.000000 0.000000 0.000000
													}
												}
											}
										}
										JOINT RightHandPinky1
										{
											OFFSET -23.655350 0.125290 -12.815412
											CHANNELS 3 Xrotation Yrotation Zrotation
											JOINT RightHandPinky2
											{
												OFFSET -8.425102 0.000000 0.000000
												CHANNELS 3 Xrotation Yrotation Zrotation
												JOINT RightHandPinky3
												{
													OFFSET -8.147003 0.000000 0.000000
													CHANNELS 3 Xrotation Yrotation Zrotation
													End Site
													{
														OFFSET 0.000000 0.000000 0.000000
													}
												}
											}
										}
									}
								}
							}
						}
					}
				}
			}
		}
	}
	JOINT LeftUpLeg
	{
		OFFSET 11.394100 -6.187798 -0.413800
		CHANNELS 3 Xrotation Yrotation Zrotation
		JOINT LeftLeg
		{
			OFFSET 0.430247 -32.302673 3.732800
			CHANNELS 3 Xrotation Yrotation Zrotation
			JOINT LeftFoot
			{
				OFFSET -0.430247 -48.264931 -6.423300
				CHANNELS 3 Xrotation Yrotation Zrotation
				JOINT LeftToeBase
				{
					OFFSET 4.230900 -16.068199 23.438400
					CHANNELS 3 Xrotation Yrotation Zrotation
					JOINT LeftToe_End
					{
						OFFSET 4.510700 0.695400 19.974600
						CHANNELS 3 Xrotation Yrotation Zrotation
						End Site
						{
							OFFSET 0.000000 0.000000 0.000000
						}
					}
				}
			}
		}
	}
	JOINT RightUpLeg
	{
		OFFSET -11.333700 -6.187798 -0.413800
		CHANNELS 3 Xrotation Yrotation Zrotation
		JOINT RightLeg
		{
			OFFSET -0.430392 -32.302628 3.733000
			CHANNELS 3 Xrotation Yrotation Zrotation
			JOINT RightFoot
			{
				OFFSET 0.430392 -48.264973 -6.423500
				CHANNELS 3 Xrotation Yrotation Zrotation
				JOINT RightToeBase
				{
					OFFSET -4.230900 -16.068199 23.438400
					CHANNELS 3 Xrotation Yrotation Zrotation
					JOINT RightToe_End
					{
						OFFSET -4.510700 0.695400 19.974600
						CHANNELS 3 Xrotation Yrotation Zrotation
						End Site
						{
							OFFSET 0.000000 0.000000 0.000000
						}
					}
				}
			}
		}
	}
}
MOTION
Frames: 5
Frame Time: 0.016667
0.166935 48.747498 -4.177057 0.290850 0.669081 0.755408 1.234693 0.313804 0.002503 0.110009 0.122969 -0.090715 0.000000 0.000000 0.000000 0.108809 0.114775 -0.092286 -0.391163 0.001168 0.119094 -1.124861 0.498129 0.197438 0.000000 -0.000000 0.000000 0.606873 -3.284650 -22.051937 0.000000 0.000000 0.000000 11.464578 -16.354598 -52.988536 0.000002 -20.361386 0.000016 -6.670432 11.936426 -5.315176 -8.139815 -14.751882 10.508546 11.522766 33.951402 -1.839709 3.775265 9.818966 17.836001 0.000002 -0.000002 -0.000000 -0.453783 -5.320377 -4.184401 0.332717 1.947938 -19.383536 0.000000 -0.000000 -0.000001 -0.401513 -0.921339 -7.463552 1.036268 3.328490 -34.578000 0.000001 0.000001 0.000003 -0.149529 2.814370 -20.128124 0.105530 1.108094 -10.879704 -0.000001 -0.000000 -0.000000 -7.736882 8.986370 -14.639675 0.589052 2.562160 -25.891241 0.000000 0.000000 0.000001 -0.115223 9.903018 22.054927 0.000000 0.000000 0.000000 7.750432 7.038403 56.271965 -0.000005 19.886640 0.000032 -2.747037 -6.054065 1.890073 -17.666035 6.240247 -1.517379 -4.146462 -35.461406 -9.882281 3.008610 -18.516397 -20.364332 0.000001 0.000000 0.000002 13.894428 5.077788 9.899988 0.129256 -1.090754 13.516395 -0.000005 0.000000 0.000001 -0.138702 -1.041594 7.048792 0.785991 -2.591015 33.745376 -0.000001 -0.000000 -0.000001 0.562743 -5.309931 11.245065 0.534003 -2.167226 27.680993 0.000000 -0.000000 0.000000 -12.301551 -16.678046 11.029496 0.315741 -1.687207 21.197738 -0.000001 0.000000 0.000001 -26.476450 -5.903496 13.279259 107.678745 21.611760 3.567964 45.929655 -1.849396 -6.169280 13.623861 11.113853 42.433387 0.000001 0.000000 0.000000 -24.989024 1.545102 -13.899600 108.383320 -7.674640 -1.721895 37.219664 2.495925 6.233212 1.475779 -34.666034 -51.928808 0.000001 0.000000 -0.000002 
0.168006 48.748245 -4.187068 0.298491 0.589194 0.648628 1.200738 0.331080 0.009542 0.052092 0.122970 -0.079784 0.000000 0.000000 0.000000 0.095956 0.114775 -0.080994 -0.228473 -0.005407 0.129676 0.329910 0.494720 0.033181 -0.000000 0.000000 0.000000 0.608520 -3.276007 -22.034008 0.000000 0.000000 0.000000 11.676374 -16.033980 -52.975425 0.000003 -20.991225 0.000004 -6.051229 11.322428 -4.940439 -8.139806 -14.751885 10.508540 11.522767 33.951395 -1.839709 3.775271 9.818949 17.835962 0.000002 -0.000000 -0.000001 -0.453770 -5.320379 -4.184389 0.332714 1.947936 -19.383536 0.000000 -0.000000 0.000000 -0.401510 -0.921342 -7.463567 1.036269 3.328487 -34.578003 0.000004 0.000001 0.000003 -0.149522 2.814365 -20.128159 0.105527 1.108087 -10.879720 -0.000001 0.000001 0.000000 -7.736876 8.986371 -14.639653 0.589055 2.562163 -25.891208 -0.000001 -0.000000 -0.000002 -0.112318 9.880029 22.058279 0.000000 0.000000 0.000000 7.556013 7.063307 56.310620 -0.000004 19.520829 0.000001 -3.871945 -5.621825 1.949127 -17.631778 6.226395 -1.472163 -4.122570 -35.426477 -9.858950 2.892198 -18.401520 -20.514458 0.000000 0.000001 0.000001 13.897253 5.063021 9.896198 0.129259 -1.090754 13.516412 -0.000001 -0.000000 -0.000001 -0.138559 -1.041055 7.042422 0.785985 -2.591024 33.745379 0.000001 0.000001 0.000001 0.562406 -5.309477 11.238678 0.534002 -2.167229 27.680988 -0.000002 0.000000 0.000000 -12.305491 -16.660360 11.028089 0.315740 -1.687209 21.197736 -0.000000 0.000002 -0.000003 -26.429248 -5.998898 13.430351 107.731447 21.530973 3.459352 45.913501 -1.844664 -6.206949 13.624055 11.113997 42.433062 0.000001 -0.000000 -0.000000 -25.077011 1.488196 -13.753122 108.386161 -7.808236 -1.805329 37.259734 2.557598 6.165537 1.474836 -34.665683 -51.929481 -0.000004 0.000001 0.000001 
0.169068 48.748863 -4.195526 0.304474 0.510768 0.541814 1.163531 0.345955 0.017038 -0.003815 0.122969 -0.069357 0.000000 0.000000 0.000000 0.082491 0.114775 -0.070304 -0.071077 -0.012587 0.139877 1.744315 0.480030 -0.128429 0.000000 0.000000 -0.000000 0.612547 -3.237234 -22.011258 0.000000 0.000000 0.000000 11.987006 -15.467821 -52.997582 0.000001 -21.987793 0.000001 -5.382029 10.694936 -4.502708 -8.139806 -14.751882 10.508565 11.522775 33.951375 -1.839747 3.775259 9.818954 17.836011 0.000002 -0.000000 -0.000000 -0.453768 -5.320380 -4.184392 0.332705 1.947942 -19.383542 -0.000002 -0.000001 -0.000004 -0.401514 -0.921337 -7.463565 1.036275 3.328481 -34.578017 0.000000 0.000000 -0.000001 -0.149527 2.814366 -20.128154 0.105524 1.108091 -10.879705 0.000002 -0.000000 0.000000 -7.736880 8.986372 -14.639672 0.589049 2.562157 -25.891222 -0.000000 -0.000000 -0.000002 -0.109607 9.836587 22.070940 0.000000 0.000000 0.000000 7.347448 6.953226 56.327887 -0.000009 19.192799 0.000021 -5.078328 -5.110203 2.168231 -17.553639 6.187627 -1.350067 -4.048876 -35.369370 -9.802745 2.674050 -18.062177 -20.788772 0.000000 -0.000005 -0.000002 13.900049 5.031333 9.920347 0.129427 -1.091414 13.524804 -0.000002 0.000000 -0.000001 -0.138979 -1.042682 7.061662 0.786359 -2.591585 33.753729 0.000001 0.000001 0.000003 0.563434 -5.310868 11.257982 0.534317 -2.167822 27.689322 -0.000000 -0.000001 0.000001 -12.306925 -16.625891 11.059034 0.316052 -1.688015 21.208371 -0.000000 0.000000 -0.000000 -26.380943 -6.080322 13.579612 107.778152 21.436472 3.362290 45.895630 -1.824159 -6.256998 13.624424 11.114127 42.432506 -0.000000 0.000000 -0.000000 -25.158431 1.431339 -13.606943 108.386045 -7.944865 -1.887735 37.298529 2.623392 6.097523 1.474066 -34.665317 -51.930044 -0.000000 0.000000 -0.000000 
0.170137 48.749382 -4.203021 0.309369 0.433216 0.435014 1.124293 0.359362 0.024784 -0.058467 0.122970 -0.059246 0.000000 0.000000 0.000000 0.068642 0.114775 -0.059990 0.083013 -0.020142 0.149842 3.133420 0.460802 -0.287752 -0.000000 -0.000000 -0.000000 0.620312 -3.169125 -21.988821 0.000000 0.000000 0.000000 12.328127 -14.761502 -53.058914 -0.000004 -23.142218 -0.000001 -4.776230 10.167329 -4.082460 -8.139808 -14.751882 10.508541 11.522765 33.951381 -1.839740 3.775268 9.818962 17.835999 0.000001 0.000001 0.000002 -0.453769 -5.320377 -4.184374 0.332706 1.947936 -19.383551 0.000001 -0.000000 -0.000000 -0.401513 -0.921342 -7.463575 1.036265 3.328480 -34.578017 0.000001 -0.000002 -0.000002 -0.149529 2.814367 -20.128153 0.105524 1.108091 -10.879722 -0.000000 0.000001 0.000000 -7.736883 8.986377 -14.639657 0.589054 2.562157 -25.891225 -0.000000 -0.000001 -0.000003 -0.108020 9.779241 22.093352 0.000000 0.000000 0.000000 7.155698 6.738902 56.317130 0.000011 18.933013 -0.000026 -6.140824 -4.611277 2.521062 -17.448343 6.132588 -1.164797 -3.936285 -35.319280 -9.728637 2.386653 -17.518102 -21.076352 -0.000001 0.000000 0.000001 13.899344 4.991659 9.992883 0.130039 -1.093986 13.556991 -0.000000 0.000001 -0.000000 -0.140423 -1.048366 7.128627 0.787810 -2.593747 33.785719 0.000002 -0.000001 -0.000005 0.566993 -5.315727 11.325254 0.535535 -2.170132 27.721359 -0.000000 -0.000000 0.000001 -12.302566 -16.587946 11.141762 0.317155 -1.690852 21.245759 0.000000 -0.000000 -0.000000 -26.332891 -6.148269 13.729104 107.819816 21.328104 3.275580 45.875338 -1.790727 -6.314857 13.623962 11.114407 42.434545 -0.000002 0.000001 -0.000001 -25.235949 1.372820 -13.460275 108.384304 -8.068071 -1.968912 37.336690 2.676440 6.038645 1.470224 -34.663470 -51.933640 -0.000001 0.000001 -0.000001 
0.171265 48.749809 -4.210207 0.313744 0.356032 0.328206 1.084241 0.372160 0.032647 -0.112616 0.122970 -0.049261 0.000000 0.000000 0.000000 0.054640 0.117964 -0.049826 0.235781 -0.027848 0.159711 4.512338 0.440022 -0.446023 0.000000 -0.000000 0.000000 0.631746 -3.067925 -21.968221 0.000000 0.000000 0.000000 12.694675 -13.897989 -53.165380 -0.000002 -24.452518 -0.000013 -4.211906 9.725568 -3.679034 -8.139810 -14.751877 10.508542 11.522776 33.951381 -1.839724 3.775266 9.818963 17.836013 0.000001 0.000001 0.000000 -0.453773 -5.320373 -4.184401 0.332710 1.947939 -19.383541 -0.000001 -0.000000 -0.000004 -0.401518 -0.921343 -7.463600 1.036270 3.328488 -34.578003 0.000003 0.000000 0.000002 -0.149522 2.814366 -20.128159 0.105524 1.108090 -10.879724 -0.000002 -0.000000 -0.000001 -7.736881 8.986377 -14.639655 0.589051 2.562159 -25.891225 -0.000000 0.000000 0.000001 -0.107064 9.704565 22.126620 0.000000 0.000000 0.000000 6.969232 6.423778 56.272115 0.000001 18.707391 0.000022 -7.070993 -4.108231 3.029964 -17.041136 5.892689 -0.671584 -3.772901 -35.227227 -9.621901 2.184492 -17.550748 -21.109891 0.000001 0.000003 0.000001 13.889863 4.875647 10.288499 0.134040 -1.110476 13.765398 0.000001 0.000000 0.000001 -0.147232 -1.075469 7.447952 0.797248 -2.607780 33.993640 0.000002 -0.000000 0.000002 0.585152 -5.340281 11.666592 0.543434 -2.185087 27.929308 0.000001 0.000001 0.000005 -12.261079 -16.488495 11.541983 0.324507 -1.709630 21.493511 0.000000 0.000000 -0.000000 -26.288150 -6.199352 13.873594 107.855087 21.216463 3.206630 45.857053 -1.745969 -6.387505 13.625059 11.114594 42.432065 0.000000 -0.000001 0.000001 -25.311334 1.314955 -13.312720 108.382241 -8.170144 -2.046392 37.373719 2.713158 5.990583 1.471334 -34.664101 -51.932452 -0.000000 -0.000001 0.000000 
